<?xml version="1.0" encoding="utf-8"?>
<!-- Generator: Adobe Illustrator 16.0.0, SVG Export Plug-In . SVG Version: 6.00 Build 0)  -->
<!DOCTYPE svg PUBLIC "-//W3C//DTD SVG 1.1//EN" "http://www.w3.org/Graphics/SVG/1.1/DTD/svg11.dtd">
<svg version="1.1" id="Capa_1" xmlns="http://www.w3.org/2000/svg" xmlns:xlink="http://www.w3.org/1999/xlink" x="0px" y="0px"
	 width="512px" height="512px" viewBox="0 0 512 512" enable-background="new 0 0 512 512" xml:space="preserve">
<g>
	<g>
		<path fill="#CDD1D3" d="M226.87,371.547h58.259v65.056H226.87V371.547z"/>
	</g>
	<g>
		<g>
			<path fill="#9B9B9B" d="M226.87,396.636c9.517,1.374,19.239,2.1,29.13,2.1c9.891,0,19.613-0.725,29.129-2.1v-25.089H226.87
				V396.636z"/>
		</g>
		<g>
			<circle fill="#EFF3F5" cx="256" cy="195.799" r="178.662"/>
		</g>
		<g>
			<path fill="#C9E2E7" d="M368,56.611c24.688,30.64,39.475,69.59,39.475,112.001c0,98.672-79.99,178.661-178.662,178.661
				c-42.41,0-81.361-14.787-112.001-39.473c32.749,40.646,82.926,66.66,139.188,66.66c98.672,0,178.662-79.989,178.662-178.662
				C434.662,139.537,408.646,89.359,368,56.611z"/>
		</g>
		<g>
			<circle fill="#CDD1D3" cx="256" cy="195.799" r="116.519"/>
		</g>
		<g>
			<circle fill="#9B9B9B" cx="256" cy="195.8" r="77.679"/>
		</g>
		<g>
			<circle fill="#B9E4EF" cx="256" cy="195.799" r="38.84"/>
		</g>
		<g>
			<path fill="#90D8F9" d="M274.887,161.862c3.119,5.591,4.902,12.03,4.902,18.887c0,21.45-17.389,38.839-38.84,38.839
				c-6.857,0-13.294-1.784-18.887-4.902c6.638,11.9,19.344,19.953,33.937,19.953c21.45,0,38.839-17.389,38.839-38.84
				C294.84,181.206,286.787,168.5,274.887,161.862z"/>
		</g>
	</g>
	<g>
		<path fill="#595959" d="M411.357,494.862H100.643v-29.129c0-16.088,13.042-29.131,29.13-29.131h252.456
			c16.088,0,29.129,13.043,29.129,29.131V494.862z"/>
	</g>
	<g>
		<path fill="#6D91AC" d="M379.729,195.799c0-68.224-55.506-123.728-123.729-123.728c-25.589,0-50.146,7.747-71.019,22.401
			c-3.258,2.288-4.044,6.784-1.758,10.042c2.289,3.259,6.786,4.047,10.042,1.757C211.699,93.331,233.391,86.49,256,86.49
			c60.273,0,109.309,49.037,109.309,109.31S316.273,305.108,256,305.108c-60.273,0-109.31-49.036-109.31-109.309
			c0-24.91,8.16-48.371,23.598-67.847c2.473-3.12,1.948-7.655-1.172-10.128c-3.118-2.472-7.654-1.947-10.127,1.172
			c-17.479,22.05-26.717,48.609-26.717,76.803c0,68.225,55.505,123.728,123.728,123.728
			C324.223,319.527,379.729,264.024,379.729,195.799z"/>
		<path fill="#6D91AC" d="M256,280.688c46.807,0,84.887-38.081,84.887-84.888c0-46.808-38.08-84.888-84.887-84.888
			c-46.807,0-84.888,38.081-84.888,84.888C171.112,242.605,209.193,280.688,256,280.688L256,280.688z M256,125.33
			c38.857,0,70.469,31.614,70.469,70.47S294.857,266.27,256,266.27c-38.857,0-70.47-31.613-70.47-70.47
			C185.53,156.942,217.143,125.33,256,125.33L256,125.33z"/>
		<path fill="#6D91AC" d="M256,241.847c25.391,0,46.049-20.656,46.049-46.048S281.391,149.751,256,149.751
			c-25.392,0-46.049,20.657-46.049,46.048S230.608,241.847,256,241.847z M256,164.169c17.441,0,31.631,14.189,31.631,31.63
			S273.441,227.429,256,227.429s-31.631-14.189-31.631-31.629S238.559,164.169,256,164.169z"/>
		<path fill="#6D91AC" d="M382.229,429.395h-89.891v-51.301c85.15-16.945,149.533-92.237,149.533-182.294
			C441.871,93.31,358.49,9.929,256,9.929c-102.49,0-185.871,83.381-185.871,185.871c0,90.057,64.381,165.349,149.532,182.294v51.3
			h-89.89c-20.038,0-36.339,16.302-36.339,36.34v29.129c0,3.982,3.228,7.209,7.209,7.209H364.48c3.98,0,7.209-3.227,7.209-7.209
			c0-3.981-3.229-7.209-7.209-7.209H107.852v-21.92c0-12.087,9.833-21.921,21.921-21.921h252.456
			c12.088,0,21.922,9.833,21.922,21.921v21.92h-44.479c-3.98,0-7.209,3.228-7.209,7.209c0,3.982,3.229,7.209,7.209,7.209h51.688
			c3.98,0,7.209-3.227,7.209-7.209v-29.129C418.566,445.696,402.266,429.395,382.229,429.395z M84.548,195.799
			c0-94.539,76.913-171.452,171.452-171.452c94.539,0,171.453,76.914,171.453,171.452S350.539,367.252,256,367.252
			C161.46,367.252,84.548,290.339,84.548,195.799z M234.079,429.395v-49.023c7.192,0.849,14.504,1.299,21.921,1.299
			c7.416,0,14.729-0.45,21.92-1.299v49.023H234.079z"/>
	</g>
</g>
</svg>
