<svg id="Layer_1" enable-background="new 0 0 512 512" height="512" viewBox="0 0 512 512" width="512" xmlns="http://www.w3.org/2000/svg"><g><g><path clip-rule="evenodd" d="m175.994 50h120 100v65.115l22.696-39.31 17.304-29.971v-15.834c0-11-9-20-20-20h-360c-11 0-20 9-20 20v452c0 11 9 20 20 20h360c11 0 20-9 20-20v-356.166l-40 69.282v266.884h-320v-412z" fill="#fff7bf" fill-rule="evenodd"/><path clip-rule="evenodd" d="m295.994 70v-20h-120v20c0 11 9 20 20 20h80c11 0 20-9 20-20z" fill="#fff" fill-rule="evenodd"/><path clip-rule="evenodd" d="m275.994 90h-80c-11 0-20-9-20-20v-20h-100v412h320v-266.885l-63.659 110.261-20.001 34.642-32.321 15.982-2.32-35.982 20.001-34.642 98.3-170.261v-65.115h-100v20c0 11-9 20-20 20z" fill="#fff" fill-rule="evenodd"/><g><path d="m325.993 166h-110c-5.522 0-10-4.478-10-10s4.478-10 10-10h110c5.522 0 10 4.478 10 10s-4.477 10-10 10z" fill="#e3eaef"/></g><g><path d="m285.994 206h-70.001c-5.522 0-10-4.478-10-10s4.478-10 10-10h70.001c5.522 0 10 4.478 10 10s-4.477 10-10 10z" fill="#e3eaef"/></g><g><path d="m285.994 246h-70.001c-5.522 0-10-4.478-10-10s4.478-10 10-10h70.001c5.522 0 10 4.478 10 10s-4.477 10-10 10z" fill="#e3eaef"/></g><g><path d="m300.951 285.999h-84.958c-5.522 0-10-4.478-10-10s4.478-10 10-10h84.958c5.522 0 10 4.478 10 10s-4.477 10-10 10z" fill="#e3eaef"/></g><g><path d="m278.233 325.999h-62.239c-5.522 0-10-4.478-10-10s4.478-10 10-10h62.239c5.522 0 10 4.478 10 10s-4.478 10-10 10z" fill="#e3eaef"/></g><g><path d="m240.743 365.999h-24.75c-5.522 0-10-4.478-10-10s4.478-10 10-10h24.75c5.522 0 10 4.478 10 10s-4.477 10-10 10z" fill="#e3eaef"/></g><g clip-rule="evenodd" fill-rule="evenodd"><path d="m155.994 195.999c11.016 0 20-8.984 20-20 0-11.015-8.984-20-20-20s-20 8.984-20 20 8.984 20 20 20z" fill="#ffbecb"/><path d="m155.994 276c11.016 0 20-8.984 20-20 0-11.015-8.984-20-20-20s-20 8.984-20 20 8.984 20 20 20z" fill="#ffbecb"/><path d="m155.994 356c11.016 0 20-8.984 20-20 0-11.015-8.984-20-20-20s-20 8.984-20 20 8.984 20 20 20z" fill="#ffbecb"/><path d="m395.994 115.115-98.3 170.26 34.641 20.001 63.659-110.261 40-69.281 17.337-30.03-34.641-20z" fill="#ffbecb"/><path d="m418.69 75.804 34.641 20 20.001-34.642c5.5-9.526 2.202-21.822-7.321-27.321-9.523-5.498-21.822-2.203-27.32 7.32l-2.697 4.671z" fill="#ffe0e6"/><path d="m332.335 305.376-34.641-20-20.001 34.642 2.32 35.981 32.321-15.981z" fill="#ffe0e6"/></g></g><path d="m484.964 43.402c-2.078-7.755-7.034-14.227-13.953-18.221-6.919-3.995-15.003-5.05-22.758-2.972-1.04.279-2.054.613-3.045.992-3.089-13.276-15.01-23.201-29.214-23.201h-360.001c-16.541 0-29.999 13.458-29.999 30v452c0 16.542 13.458 30 29.999 30h360.001c16.542 0 30-13.458 30-30v-353.488l35.998-62.35c3.996-6.921 5.051-15.004 2.972-22.76zm-68.97-23.402c5.514 0 10 4.486 10 10v13.153l-20 34.641v-27.794c0-5.522-4.478-10-10-10h-90.001v-20zm-145.961 336.643c.215 3.336 2.084 6.345 4.979 8.017 1.544.892 3.271 1.34 5 1.34 1.516 0 3.033-.344 4.433-1.036l32.321-15.981c1.77-.875 3.24-2.254 4.228-3.964l65-112.583v219.564h-300v-392h80v10c0 16.542 13.457 30 29.999 30h80.001c16.542 0 29.999-13.458 29.999-30v-10h80.001v52.435l-116.961 202.583c-.987 1.71-1.446 3.673-1.319 5.644zm-84.039-296.643h99.999v10c0 5.514-4.485 10-9.999 10h-80.001c-5.514 0-9.999-4.486-9.999-10zm99.999-40v20h-99.999v-20zm140.001 462c0 5.514-4.486 10-10 10h-360.001c-5.514 0-9.999-4.486-9.999-10v-452c0-5.514 4.485-10 9.999-10h110.001v20h-90c-5.522 0-10 4.478-10 10v412c0 5.522 4.478 10 10 10h320c5.522 0 10-4.478 10-10v-264.206l20-34.641zm38.678-425.838-159.484 276.234-16.16 7.99-1.16-17.99 159.483-276.234c1.323-2.293 3.482-3.938 6.079-4.634s5.289-.35 7.581.974c2.293 1.324 3.939 3.482 4.636 6.078.695 2.596.349 5.289-.975 7.582z" fill="#ffc144"/></g></svg>