<svg id="Layer_1" enable-background="new 0 0 511.999 511.999" height="512" viewBox="0 0 511.999 511.999" width="512" xmlns="http://www.w3.org/2000/svg"><g><g clip-rule="evenodd" fill-rule="evenodd"><path d="m135.999 155.998h240.001v-99.999c0-10.998-9-20-20-20h-200.001c-11 0-20 9-20 20z" fill="#fff"/><path d="m376 155.998h-240.001v20.001c0 11 9.001 20 20 20h200.002c10.998 0 20-9.001 20-20v-20.001z" fill="#ccf5fc"/><path d="m501.999 236h-491.999v40.002l146-.001 200 .001h145.999z" fill="#e8d0c1"/><g fill="#f4e9e2"><path d="m356 276.001h145.999v80.003h-145.999z"/><path d="m356 356.004h145.999v119.995h-145.999z"/><path d="m10 276.001h146v80.003h-146z"/><path d="m10 356.004h146v119.995h-146z"/></g></g><g fill="#c68a65"><path d="m501.999 226h-235.999v-20.001h90.001c16.542 0 29.999-13.458 29.999-30v-120c0-16.542-13.457-29.999-29.999-29.999h-200.002c-16.542 0-30 13.457-30 29.999v120c0 16.542 13.458 30 30 30h90.001v20.001h-236c-5.522 0-10 4.478-10 10v239.999c0 5.522 4.478 10 10 10h146c5.522 0 10-4.478 10-10v-189.998h180v189.998c0 5.522 4.478 10 10 10h145.999c5.522 0 10-4.478 10-10v-239.999c0-5.522-4.478-10-10-10zm-356-50.001v-120c0-5.514 4.486-9.999 10-9.999h200.002c5.514 0 9.999 4.485 9.999 9.999v120c0 5.514-4.485 10-9.999 10h-200.002c-5.514 0-10-4.486-10-10zm220.001 110.003h125.999v60.003h-125.999zm-220 60.003h-126v-60.003h126zm-126 119.994v-99.994h125.999.001v99.994zm136-199.998c-.007 0-.013.001-.019.001h-135.981v-20.002h471.999v20.002h-135.98c-.006 0-.013-.001-.019-.001zm335.999 199.998h-125.999v-99.994h125.999z"/><path d="m63 326.003h40c5.522 0 10-4.478 10-10s-4.478-10-10-10h-40c-5.522 0-10 4.478-10 10s4.478 10 10 10z"/><path d="m103 386.006h-40c-5.522 0-10 4.478-10 10s4.478 10 10 10h40c5.522 0 10-4.478 10-10s-4.478-10-10-10z"/><path d="m449 306.003h-40c-5.522 0-10 4.478-10 10s4.478 10 10 10h40c5.522 0 10-4.478 10-10s-4.478-10-10-10z"/><path d="m409 406.006h40c5.522 0 10-4.478 10-10s-4.478-10-10-10h-40c-5.522 0-10 4.478-10 10s4.478 10 10 10z"/></g></g></svg>