<?xml version="1.0" encoding="utf-8"?>
<!-- Generator: Adobe Illustrator 16.0.0, SVG Export Plug-In . SVG Version: 6.00 Build 0)  -->
<!DOCTYPE svg PUBLIC "-//W3C//DTD SVG 1.1//EN" "http://www.w3.org/Graphics/SVG/1.1/DTD/svg11.dtd">
<svg version="1.1" xmlns="http://www.w3.org/2000/svg" xmlns:xlink="http://www.w3.org/1999/xlink" x="0px" y="0px" width="512px"
	 height="512px" viewBox="0 0 512 512" enable-background="new 0 0 512 512" xml:space="preserve">
<g id="Layer_1">
	<g>
		<g>
			<path fill="#FFFFFF" d="M65.999,155.998H306V55.999c0-10.998-9-20-20-20H85.999c-11,0-20,9-20,20V155.998z"/>
			<path fill="#CCF5FC" d="M306,155.998H65.999v20.001c0,11,9.001,20,20,20h200.002c10.998,0,20-9.001,20-20L306,155.998
				L306,155.998z"/>
			<path fill="#E8D0C1" d="M501.999,236H10v40.002l146-0.001l200,0.001h145.999V236z"/>
			<g>
				<path fill="#F4E9E2" d="M356,276.001h145.999v80.003H356V276.001z"/>
				<path fill="#F4E9E2" d="M356,356.004h145.999v119.995H356V356.004z"/>
				<path fill="#F4E9E2" d="M10,276.001h146v80.003H10V276.001z"/>
				<path fill="#F4E9E2" d="M10,356.004h146v119.995H10V356.004z"/>
			</g>
		</g>
		<g>
			<path fill="#C68A65" d="M501.999,226H196v-20.001h90.001c16.542,0,29.999-13.458,29.999-30v-120
				C316,39.457,302.543,26,286.001,26H85.999c-16.542,0-30,13.457-30,29.999v120c0,16.542,13.458,30,30,30H176V226H10
				c-5.522,0-10,4.478-10,10v239.999c0,5.522,4.478,10,10,10h146c5.522,0,10-4.478,10-10V286.001h180v189.998
				c0,5.521,4.478,10,10,10h145.999c5.522,0,10-4.479,10-10V236C511.999,230.478,507.521,226,501.999,226z M75.999,175.999v-120
				c0-5.514,4.486-9.999,10-9.999h200.002c5.514,0,9.999,4.485,9.999,9.999v120c0,5.514-4.485,10-9.999,10H85.999
				C80.485,185.999,75.999,181.513,75.999,175.999L75.999,175.999z M366,286.002h125.999v60.003H366V286.002z M146,346.005H20
				v-60.003h126V346.005z M20,465.999v-99.994h125.999H146v99.994H20z M156,266.001c-0.007,0-0.013,0.001-0.019,0.001H20V246
				h471.999v20.002h-135.98c-0.006,0-0.013-0.001-0.019-0.001H156z M491.999,465.999H366v-99.994h125.999V465.999z"/>
			<path fill="#C68A65" d="M63,326.003h40c5.522,0,10-4.478,10-10s-4.478-10-10-10H63c-5.522,0-10,4.478-10,10
				S57.478,326.003,63,326.003z"/>
			<path fill="#C68A65" d="M103,386.006H63c-5.522,0-10,4.479-10,10c0,5.522,4.478,10,10,10h40c5.522,0,10-4.478,10-10
				C113,390.484,108.522,386.006,103,386.006z"/>
			<path fill="#C68A65" d="M449,306.003h-40c-5.522,0-10,4.478-10,10s4.478,10,10,10h40c5.522,0,10-4.478,10-10
				S454.522,306.003,449,306.003z"/>
			<path fill="#C68A65" d="M409,406.006h40c5.522,0,10-4.478,10-10c0-5.521-4.478-10-10-10h-40c-5.522,0-10,4.479-10,10
				C399,401.528,403.478,406.006,409,406.006z"/>
		</g>
	</g>
</g>
<g id="Layer_2">
	<g>
		<g>
			<g>
				<path fill="#FFE0E6" d="M388.013,123.222l11.709-3.137l-1.81-6.754c-0.461-1.717-2.242-2.745-3.959-2.285l-5.464,1.463
					c-1.718,0.46-2.747,2.242-2.286,3.959L388.013,123.222z"/>
				<path fill="#FFFFFF" d="M399.722,120.084l-11.709,3.137l-1.951,0.523l2.51,9.367l15.611-4.183l-2.51-9.367L399.722,120.084z"/>
				<path fill="#FFE0E6" d="M404.183,128.929l-15.611,4.183l5.777,21.559h16.731L404.183,128.929z"/>
				<path fill="#FFFFFF" d="M415.637,129.46v9.112h13.667v-7.886v-1.226l-6.834-11.389L415.637,129.46z"/>
				<path fill="#E3EAEF" d="M415.637,138.572h13.667v16.099h-13.667V138.572z"/>
				<path fill="#FFF7BF" d="M429.304,130.687v7.886v16.099h14.798l10.298-38.43l-19.803-5.306L429.304,130.687z"/>
				<path fill="#FFBECB" d="M444.102,154.671h-14.798h-13.667h-4.557h-16.731h-3.731v11.389h59.226v-11.389H444.102z"/>
				<path fill="#FFE0E6" d="M390.617,166.06h59.226v45.557h-59.226V166.06z"/>
				<path fill="#FFBECB" d="M449.843,211.617h-59.226v6.835c0,2.505,2.051,4.556,4.556,4.556h50.114
					c2.505,0,4.556-2.051,4.556-4.556V211.617z"/>
			</g>
		</g>
		<path fill="#FF5D7D" d="M454.988,114.041l-19.803-5.306c-0.583-0.158-1.205-0.076-1.729,0.228
			c-0.523,0.301-0.904,0.799-1.062,1.383l-3.675,13.716l-4.297-7.163c-0.412-0.687-1.153-1.106-1.954-1.106
			c-0.8,0-1.541,0.419-1.952,1.106l-6.835,11.39c-0.212,0.354-0.324,0.759-0.324,1.171v22.932h-0.53l-8.955-33.42
			c-0.156-0.584-0.538-1.081-1.062-1.384c-0.448-0.258-0.969-0.354-1.475-0.278l-1.225-4.569c-0.38-1.417-1.292-2.604-2.57-3.342
			c-1.275-0.737-2.76-0.934-4.179-0.554l-5.465,1.464c-2.934,0.786-4.682,3.813-3.896,6.748l1.226,4.568
			c-1.065,0.418-1.67,1.577-1.366,2.709l7.518,28.058h-0.762c-1.258,0-2.277,1.02-2.277,2.278v9.112
			c-1.259,0-2.278,1.021-2.278,2.278c0,1.257,1.02,2.277,2.278,2.277v41.001c-1.259,0-2.278,1.021-2.278,2.277
			c0,1.258,1.02,2.278,2.278,2.278v4.557c0,3.768,3.065,6.833,6.833,6.833h50.114c3.768,0,6.833-3.065,6.833-6.833v-4.557l0,0
			c1.259,0,2.278-1.02,2.278-2.278c0-1.257-1.02-2.277-2.278-2.277l0,0v-41.001l0,0c1.259,0,2.278-1.02,2.278-2.278
			c0-1.257-1.02-2.277-2.278-2.277l0,0v-9.112c0-1.258-1.02-2.278-2.277-2.278h-2.773l9.529-35.562
			C456.925,115.615,456.203,114.367,454.988,114.041L454.988,114.041z M436.207,113.725l15.401,4.127l-1.179,4.401l0,0l-5.501-1.475
			c-1.214-0.326-2.464,0.396-2.79,1.611c-0.325,1.215,0.396,2.464,1.611,2.79l5.5,1.474l-1.179,4.4l0,0l-3.301-0.884
			c-1.216-0.325-2.464,0.396-2.79,1.61c-0.325,1.216,0.396,2.464,1.61,2.791l3.301,0.884l-1.18,4.401l-3.3-0.885
			c-1.216-0.325-2.465,0.396-2.79,1.61c-0.325,1.216,0.396,2.464,1.61,2.791l3.301,0.885l0,0l-1.179,4.4h-0.001l-5.501-1.474
			c-1.214-0.325-2.463,0.396-2.789,1.611c-0.325,1.214,0.396,2.463,1.611,2.79l3.023,0.81h-8.117v-21.407L436.207,113.725z
			 M422.47,122.499l4.556,7.593v6.203h-9.111v-6.203L422.47,122.499z M417.914,140.851h9.111v11.542h-9.111V140.851z
			 M388.851,125.356l11.212-3.005l1.33,4.967l-11.211,3.004L388.851,125.356z M389.078,114.71l5.465-1.465
			c0.327-0.088,0.593,0.024,0.722,0.099c0.129,0.075,0.359,0.249,0.447,0.577l1.22,4.552l-7.308,1.959l-1.221-4.553
			C388.27,115.378,388.579,114.843,389.078,114.71z M391.361,134.723l11.211-3.004l5.539,20.674h-12.016L391.361,134.723z
			 M447.564,218.452c0,1.255-1.021,2.278-2.277,2.278h-50.114c-1.256,0-2.277-1.022-2.277-2.278v-4.557h54.669V218.452
			L447.564,218.452z M447.564,209.34h-54.669v-41.001h54.669V209.34z M447.564,163.783h-54.669v-6.834h54.669V163.783z"/>
	</g>
</g>
</svg>
