<?xml version="1.0" encoding="utf-8"?>
<!-- Generator: Adobe Illustrator 16.0.0, SVG Export Plug-In . SVG Version: 6.00 Build 0)  -->
<!DOCTYPE svg PUBLIC "-//W3C//DTD SVG 1.1//EN" "http://www.w3.org/Graphics/SVG/1.1/DTD/svg11.dtd">
<svg version="1.1" xmlns="http://www.w3.org/2000/svg" xmlns:xlink="http://www.w3.org/1999/xlink" x="0px" y="0px" width="512px"
	 height="512px" viewBox="0 0 512 512" enable-background="new 0 0 512 512" xml:space="preserve">
<g id="Layer_1">
	<g>
		<g>
			<g>
				<path fill="#FFFBE1" d="M172.016,41.156c-85.938,0-156.25,70.312-156.25,156.25c0,10.742,8.789,19.531,19.531,19.531h20.508
					h400.391h20.508c10.742,0,19.531-8.789,19.531-19.531c0-85.938-70.312-156.25-156.25-156.25H172.016z"/>
				<path fill="#FFEE80" d="M256,343.891c-16.123,0-17.243-9.766-33.366-9.766s-17.243,9.766-33.366,9.766
					c-16.122,0-17.243-9.766-33.366-9.766s-17.243,9.766-33.366,9.766c-16.122,0-17.243-9.766-33.366-9.766
					s-17.243,9.766-33.365,9.766c-13.428,0-24.414,10.986-24.414,24.414s10.986,24.414,24.414,24.414h400.391
					c13.428,0,24.414-10.986,24.414-24.414s-10.986-24.414-24.414-24.414c-16.123,0-17.243-9.766-33.366-9.766
					s-17.243,9.766-33.366,9.766s-17.243-9.766-33.366-9.766s-17.243,9.766-33.366,9.766c-16.122,0-17.243-9.766-33.366-9.766
					S272.123,343.891,256,343.891L256,343.891z"/>
				<path fill="#FFFBE1" d="M456.195,392.718H55.805H35.297c-10.742,0-19.531,8.789-19.531,19.531v19.532
					c0,21.484,17.578,39.062,39.062,39.062h402.344c21.484,0,39.062-17.578,39.062-39.062v-19.532
					c0-10.742-8.789-19.531-19.531-19.531H456.195z"/>
			</g>
			<g>
				<path fill="#FFE6B4" d="M161.231,101.493c-5.394,0-9.77-4.372-9.77-9.766s4.369-9.766,9.763-9.766h0.007
					c5.394,0,9.766,4.372,9.766,9.766S166.624,101.493,161.231,101.493z"/>
			</g>
			<g>
				<path fill="#FFE6B4" d="M231.544,157.743c-5.394,0-9.77-4.372-9.77-9.766s4.369-9.766,9.763-9.766h0.007
					c5.394,0,9.766,4.372,9.766,9.766S236.937,157.743,231.544,157.743z"/>
			</g>
			<g>
				<path fill="#FFE6B4" d="M303.028,108.524c-5.393,0-9.771-4.372-9.771-9.766s4.37-9.766,9.762-9.766h0.009
					c5.393,0,9.766,4.372,9.766,9.766S308.421,108.524,303.028,108.524z"/>
			</g>
			<g>
				<path fill="#FFE6B4" d="M395.613,123.759c-5.393,0-9.77-4.372-9.77-9.766s4.369-9.766,9.762-9.766h0.008
					c5.393,0,9.766,4.372,9.766,9.766S401.007,123.759,395.613,123.759z"/>
			</g>
			<g>
				<path fill="#FFE6B4" d="M116.7,153.056c-5.394,0-9.77-4.372-9.77-9.766s4.368-9.766,9.762-9.766h0.008
					c5.394,0,9.766,4.372,9.766,9.766S122.094,153.056,116.7,153.056z"/>
			</g>
			<g>
				<path fill="#FFE6B4" d="M352.841,165.945c-5.393,0-9.77-4.372-9.77-9.766c0-5.394,4.369-9.766,9.762-9.766h0.008
					c5.394,0,9.766,4.372,9.766,9.766C362.606,161.573,358.234,165.945,352.841,165.945z"/>
			</g>
			<path fill="#DDB9A3" d="M456.195,343.891c21.574,0,39.062-17.489,39.062-39.062s-17.489-39.062-39.062-39.062
				c-16.123,0-17.243,9.766-33.366,9.766s-17.243-9.766-33.366-9.766s-17.243,9.766-33.366,9.766s-17.243-9.766-33.366-9.766
				c-16.122,0-17.243,9.766-33.366,9.766s-17.243-9.766-33.366-9.766c-16.123,0-17.243,9.766-33.366,9.766
				c-16.123,0-17.243-9.766-33.366-9.766c-16.122,0-17.243,9.766-33.366,9.766c-16.123,0-17.243-9.766-33.366-9.766
				c-16.122,0-17.243,9.766-33.366,9.766s-17.243-9.766-33.365-9.766c-21.573,0-39.062,17.489-39.062,39.062
				s17.489,39.062,39.062,39.062c16.122,0,17.244-9.766,33.365-9.766c16.123,0,17.245,9.766,33.366,9.766
				c16.123,0,17.244-9.766,33.366-9.766c16.123,0,17.244,9.766,33.366,9.766c16.123,0,17.244-9.766,33.366-9.766
				c16.123,0,17.245,9.766,33.368,9.766s17.243-9.766,33.366-9.766s17.243,9.766,33.366,9.766s17.243-9.766,33.366-9.766
				c16.122,0,17.243,9.766,33.366,9.766s17.243-9.766,33.366-9.766C438.952,334.125,440.072,343.891,456.195,343.891
				L456.195,343.891z"/>
			<path fill="#E0EF9B" d="M256,265.765c-16.123,0-17.243,9.766-33.366,9.766s-17.243-9.766-33.366-9.766
				c-16.122,0-17.243,9.766-33.366,9.766s-17.243-9.766-33.366-9.766c-16.122,0-17.243,9.766-33.366,9.766
				s-17.243-9.766-33.365-9.766c-13.428,0-24.414-10.986-24.414-24.414s10.986-24.414,24.414-24.414h400.391
				c13.428,0,24.414,10.986,24.414,24.414s-10.986,24.414-24.414,24.414c-16.123,0-17.243,9.766-33.366,9.766
				s-17.243-9.766-33.366-9.766s-17.243,9.766-33.366,9.766s-17.243-9.766-33.366-9.766c-16.122,0-17.243,9.766-33.366,9.766
				S272.123,265.765,256,265.765L256,265.765z"/>
		</g>
		<path fill="#C68A86" d="M486.256,384.561c2.626-4.839,4.119-10.375,4.119-16.256c0-8.453-3.092-16.194-8.194-22.167
			c13.711-8.655,22.843-23.933,22.843-41.311s-9.133-32.654-22.843-41.31c5.103-5.973,8.194-13.713,8.194-22.167
			c0-5.881-1.493-11.419-4.12-16.256C497.731,221.124,506,210.216,506,197.406c0-44.172-17.315-85.814-48.759-117.257
			s-73.085-48.759-117.257-48.759H172.016c-44.172,0-85.815,17.315-117.258,48.759C23.316,111.592,6,153.234,6,197.406
			c0,12.81,8.268,23.719,19.745,27.689c-2.627,4.837-4.12,10.375-4.12,16.255c0,8.454,3.092,16.194,8.194,22.167
			c-13.711,8.655-22.843,23.932-22.843,41.31s9.133,32.655,22.844,41.31c-5.104,5.974-8.195,13.714-8.195,22.168
			c0,5.881,1.493,11.417,4.12,16.256C14.268,388.53,6,399.439,6,412.249v19.531c0,26.924,21.904,48.828,48.828,48.828h402.344
			C484.096,480.609,506,458.705,506,431.781V412.25C506,399.439,497.732,388.531,486.256,384.561z M172.016,50.922h167.969
			c80.771,0,146.484,65.713,146.484,146.484c0,5.385-4.38,9.766-9.765,9.766H35.297c-5.385,0-9.766-4.381-9.766-9.766
			C25.531,116.634,91.244,50.922,172.016,50.922z M41.156,241.351c0-8.077,6.571-14.648,14.648-14.648h400.391
			c8.078,0,14.648,6.571,14.648,14.648s-6.57,14.648-14.648,14.648c-10.635,0-16.657,3.41-21.496,6.15
			c-3.844,2.176-6.382,3.615-11.87,3.615c-5.487,0-8.027-1.439-11.87-3.614c-4.838-2.74-10.86-6.151-21.496-6.151
			c-10.635,0-16.657,3.411-21.496,6.151c-3.843,2.177-6.381,3.614-11.869,3.614s-8.028-1.439-11.871-3.615
			c-4.838-2.74-10.86-6.15-21.495-6.15s-16.657,3.41-21.496,6.15c-3.844,2.176-6.382,3.615-11.87,3.615s-8.027-1.439-11.869-3.615
			c-4.839-2.74-10.86-6.15-21.496-6.15c-10.635,0-16.657,3.41-21.496,6.15c-3.844,2.176-6.383,3.615-11.871,3.615
			s-8.027-1.439-11.87-3.615c-4.839-2.74-10.861-6.15-21.496-6.15s-16.656,3.41-21.495,6.15c-3.844,2.176-6.383,3.615-11.872,3.615
			s-8.026-1.439-11.87-3.615c-4.839-2.74-10.861-6.15-21.496-6.15s-16.656,3.41-21.495,6.15c-3.844,2.176-6.383,3.615-11.872,3.615
			s-8.026-1.439-11.87-3.615c-4.839-2.74-10.861-6.15-21.495-6.15C47.728,255.999,41.156,249.428,41.156,241.351L41.156,241.351z
			 M55.805,275.53c5.488,0,8.026,1.439,11.87,3.615c4.839,2.74,10.861,6.15,21.495,6.15c10.635,0,16.657-3.411,21.496-6.151
			c3.844-2.177,6.382-3.614,11.87-3.614s8.027,1.439,11.87,3.615c4.839,2.74,10.861,6.15,21.495,6.15
			c10.635,0,16.657-3.41,21.496-6.15c3.844-2.176,6.382-3.615,11.87-3.615s8.027,1.439,11.871,3.615
			c4.839,2.74,10.86,6.15,21.495,6.15s16.656-3.41,21.495-6.15c3.844-2.176,6.383-3.615,11.871-3.615s8.026,1.439,11.869,3.615
			c4.839,2.74,10.862,6.15,21.497,6.15s16.657-3.41,21.496-6.15c3.844-2.176,6.382-3.615,11.87-3.615s8.027,1.439,11.87,3.614
			c4.838,2.74,10.86,6.151,21.496,6.151c10.635,0,16.657-3.411,21.495-6.151c3.844-2.177,6.382-3.614,11.87-3.614
			s8.028,1.439,11.871,3.615c4.838,2.74,10.86,6.15,21.495,6.15s16.657-3.41,21.496-6.15c3.844-2.176,6.382-3.615,11.87-3.615
			c16.154,0,29.297,13.143,29.297,29.297s-13.143,29.297-29.297,29.297c-5.488,0-8.027-1.439-11.87-3.615
			c-4.839-2.74-10.861-6.15-21.496-6.15s-16.657,3.41-21.495,6.15c-3.844,2.176-6.383,3.615-11.871,3.615s-8.027-1.439-11.87-3.614
			c-4.839-2.74-10.861-6.15-21.496-6.15c-10.636,0-16.658,3.411-21.496,6.151c-3.844,2.176-6.382,3.614-11.87,3.614
			s-8.027-1.438-11.87-3.615c-4.839-2.74-10.86-6.15-21.496-6.15s-16.657,3.41-21.496,6.15c-3.843,2.177-6.381,3.615-11.869,3.615
			s-8.027-1.438-11.871-3.615c-4.839-2.74-10.86-6.15-21.495-6.15s-16.657,3.41-21.495,6.15c-3.844,2.177-6.383,3.615-11.871,3.615
			s-8.026-1.438-11.87-3.615c-4.839-2.74-10.86-6.15-21.495-6.15s-16.656,3.41-21.495,6.15c-3.844,2.177-6.383,3.615-11.87,3.615
			s-8.026-1.438-11.87-3.614c-4.84-2.741-10.862-6.151-21.497-6.151s-16.656,3.41-21.495,6.15c-3.844,2.177-6.382,3.615-11.87,3.615
			c-16.154,0-29.297-13.143-29.297-29.297C26.508,288.673,39.65,275.53,55.805,275.53L55.805,275.53z M77.3,347.505
			c3.844-2.176,6.382-3.615,11.87-3.615s8.027,1.439,11.871,3.615c4.839,2.74,10.86,6.15,21.495,6.15s16.657-3.41,21.496-6.15
			c3.843-2.176,6.382-3.614,11.87-3.614s8.027,1.438,11.871,3.615c4.839,2.74,10.86,6.15,21.495,6.15s16.657-3.41,21.496-6.15
			c3.844-2.177,6.383-3.615,11.87-3.615s8.027,1.438,11.87,3.615c4.838,2.74,10.86,6.15,21.495,6.15
			c10.636,0,16.657-3.41,21.495-6.15c3.844-2.177,6.382-3.615,11.87-3.615s8.027,1.438,11.869,3.615
			c4.84,2.74,10.862,6.15,21.497,6.15s16.657-3.41,21.495-6.15c3.844-2.177,6.383-3.615,11.871-3.615s8.027,1.438,11.869,3.614
			c4.839,2.74,10.861,6.151,21.496,6.151c10.636,0,16.658-3.411,21.496-6.151c3.844-2.176,6.383-3.614,11.87-3.614
			c5.488,0,8.027,1.438,11.87,3.615c4.84,2.74,10.862,6.15,21.496,6.15c8.076,0,14.648,6.57,14.648,14.648
			s-6.572,14.648-14.648,14.648H55.805c-8.077,0-14.648-6.57-14.648-14.648s6.571-14.648,14.648-14.648
			C66.439,353.656,72.461,350.246,77.3,347.505L77.3,347.505z M486.469,431.781c0,16.154-13.143,29.297-29.296,29.297H54.828
			c-16.154,0-29.297-13.143-29.297-29.297V412.25c0-5.385,4.381-9.766,9.766-9.766h441.406c5.385,0,9.765,4.381,9.765,9.766
			L486.469,431.781L486.469,431.781z"/>
	</g>
</g>
<g id="Layer_2">
	<polygon fill="#EF0000" points="498.32,33.071 484.178,18.929 258.624,244.482 33.07,18.929 18.928,33.071 244.481,258.625 
		18.928,484.179 33.07,498.321 258.624,272.768 484.178,498.321 498.32,484.179 272.767,258.625 	"/>
</g>
</svg>
