<svg id="Layer_1" enable-background="new 0 0 512 512" height="512" viewBox="0 0 512 512" width="512" xmlns="http://www.w3.org/2000/svg"><g><g clip-rule="evenodd" fill-rule="evenodd"><path d="m436 40.001v40.001h40v-40.001l-20-30.001z" fill="#fff"/><path d="m436 80.002h40v361.996h-40z" fill="#ffbecb"/><path d="m476 441.998h-40v40.002c0 11 9.001 20 20 20 11 0 20-9 20-20z" fill="#fff"/><path d="m315.999 306h80v-100h-80c-11 0-20 9-20 20v60c0 11 8.999 20 20 20z" fill="#ffe0e6"/><path d="m395.999 306h-80c-11 0-20-9-20-20v-60c0-11 9-20 20-20h80v-40.001h-320-40v180.002h40.001 319.999z" fill="#ffbecb"/><path d="m395.999 346.001h-320v155.999h299.999c11 0 20-9 20-20v-135.999z" fill="#ffe0e6"/><path d="m75.999 502v-155.999h-40v135.999c0 11 8.999 20 20 20z" fill="#ff9eb1"/><path d="m75.999 165.999h319.999v-135.999c0-11-9-20-20-20h-299.999z" fill="#ffe0e6"/><path d="m75.999 165.999v-155.999h-20c-11 0-20 9-20 20v135.999z" fill="#ff9eb1"/><ellipse cx="345.999" cy="256" fill="#ff7d97" rx="20" ry="20" transform="matrix(.707 -.707 .707 .707 -79.679 319.639)"/></g><g fill="#ff5d7d"><path d="m375.998 0h-320c-16.541 0-29.999 13.458-29.999 30v452c0 16.542 13.458 30 29.999 30h320c16.543 0 30.001-13.458 30.001-30v-452c0-16.542-13.458-30-30.001-30zm-329.999 175.999h339.999.001v20.001h-.001-70c-16.542 0-30 13.458-30 30v60c0 16.542 13.458 30 30 30h70 .001v20.001h-.001-339.999zm340 40.001v80h-.001-70c-5.514 0-10-4.486-10-10v-60c0-5.514 4.486-10 10-10zm-340-186c0-5.514 4.485-10 9.999-10h320c5.515 0 10.001 4.486 10.001 10v125.999h-.001-339.999zm329.999 462h-320c-5.514 0-9.999-4.486-9.999-10v-125.999h339.999.001v125.999c0 5.514-4.486 10-10.001 10z"/><path d="m484.321 34.454-20-30.001c-1.855-2.782-4.977-4.453-8.321-4.453s-6.466 1.671-8.32 4.453l-20 30.001c-1.096 1.643-1.68 3.573-1.68 5.547v441.999c0 16.542 13.458 30 30 30s30-13.458 30-30v-441.999c0-1.974-.584-3.904-1.679-5.547zm-18.321 447.546c0 5.514-4.486 10-10 10s-10-4.486-10-10v-438.971l10-15 10 15z"/></g></g></svg>