<svg id="Layer_1" enable-background="new 0 0 512.001 512.001" height="512" viewBox="0 0 512.001 512.001" width="512" xmlns="http://www.w3.org/2000/svg"><g><g><g clip-rule="evenodd" fill-rule="evenodd"><path d="m326.001 10h-139.999c-11 0-18.906 9.054-20 20l-20.001 200.001c-1.094 10.945 9.002 20 20 20h70 40.001 70c10.999 0 21.095-9.056 20-20l-20.001-200.001c-1.095-10.944-9-20-20-20z" fill="#e3eaef"/><path d="m136 209.999c0-11-9-20-20-20h-30.001c-11 0-20 9-20 20 0 11.001 9 20 20 20h15 15c11.001 0 20.001-9 20.001-20z" fill="#e3eaef"/><path d="m236 250h40.001v40.001h-40.001z" fill="#fff"/><path d="m276.002 290.002h-40.002-90c-11 0-20 9.001-20 20v20.001c0 5.499 4.5 10 10 10h40.002 159.998 40.002c5.5 0 10-4.5 10-10v-20.001c0-11-9-20-20-20z" fill="#e3eaef"/><path d="m336 340.002h-159.998v20c0 11 9.002 20 20 20h39.998 40.001 39.999c10.998 0 20-9.002 20-20z" fill="#c5d3de"/><path d="m236 380.002h40.001v61.999h-40.001z" fill="#fff"/><path d="m356.001 442.001h-79.999-40.002-79.999c-11 0-20 9-20 20v20h120 120v-20c0-11-8.999-20-20-20z" fill="#e3eaef"/><path d="m411.002 229.999h15c11 0 20-9 20-20s-9-20-20-20h-30.001c-11 0-20 9-20 20 0 11.001 9 20 20 20z" fill="#e3eaef"/></g><g><path d="m286.001 76.201h-60c-5.523 0-10-4.477-10-10s4.477-10 10-10h60c5.522 0 10 4.477 10 10s-4.477 10-10 10z" fill="#c5d3de"/></g><g><path d="m286.001 116.203h-60c-5.523 0-10-4.477-10-10s4.477-10 10-10h60c5.522 0 10 4.477 10 10s-4.477 10-10 10z" fill="#c5d3de"/></g></g><path d="m426.003 179.999h-30.001c-9.674 0-18.288 4.607-23.778 11.738l-16.273-162.733c-1.68-16.806-14.277-29.004-29.951-29.004h-139.998c-15.674 0-28.27 12.198-29.951 29.004l-16.273 162.732c-5.49-7.131-14.104-11.738-23.778-11.738h-30c-16.542 0-30 13.458-30 30s13.458 30 30 30h5v50.002c0 14.839 10.831 27.188 25.001 29.576v10.425c0 11.028 8.972 20 20 20h30.002v10c0 3.506.61 6.87 1.72 10h-31.723c-5.523 0-10 4.477-10 10s4.477 10 10 10h60.002 29.998v41.999h-69.999c-16.542 0-30 13.458-30 30v20 20c0 5.523 4.477 10 10 10s10-4.477 10-10v-10h100v10c0 5.523 4.477 10 10 10 5.522 0 10-4.477 10-10v-10h100v10c0 5.523 4.478 10 10 10s10-4.477 10-10v-20-20c0-16.542-13.458-30-30-30h-69.999v-41.999h29.997c16.543 0 30.001-13.458 30.001-30v-10h30.002c11.027 0 19.999-8.972 19.999-20v-10.425c14.17-2.388 25.001-14.737 25.001-29.576v-50.002h5.001c16.542 0 29.999-13.458 29.999-30 0-16.541-13.457-29.999-29.999-29.999zm-270.052 50.997 20-200.001c.53-5.295 3.901-10.995 10.05-10.995h139.999c6.149 0 9.521 5.7 10.051 10.995l20 200.001c.24 2.403-.952 4.282-1.996 5.434-1.992 2.202-5.078 3.57-8.054 3.57h-180c-2.976 0-6.062-1.368-8.054-3.57-1.043-1.152-2.236-3.03-1.996-5.434zm90.049 49.006v-20.002h20.002v20.001h-20.002zm-170.001-70.003c0-5.514 4.486-10 10-10h30c5.514 0 10 4.486 10 10s-4.486 10-10 10h-30c-5.514 0-10-4.486-10-10zm41.902 89.505c-4-1.308-6.901-5.071-6.901-9.503v-50.002h5c7.648 0 14.633-2.881 19.938-7.61.179 6.368 2.661 12.468 7.179 17.461 5.752 6.355 14.306 10.15 22.884 10.15h60v20.001h-80c-12.85.001-23.835 8.124-28.1 19.503zm248.1 162.497v10h-220v-10c0-5.514 4.486-10 10-10h200c5.514 0 10 4.486 10 10zm-99.999-30h-20.002v-41.999h20.002zm59.998-71.999c0 5.514-4.486 10-10.001 10h-119.997c-5.514 0-10-4.486-10-10v-10h139.998zm-190-30v-20c0-5.514 4.486-10 10-10h220c5.514 0 10 4.486 10 10l.001 20zm265.002-40.001c0 4.432-2.9 8.194-6.901 9.503-4.265-11.379-15.25-19.502-28.1-19.502h-79.999v-20.002h59.999c8.577 0 17.132-3.794 22.884-10.15 4.519-4.993 7-11.093 7.18-17.46 5.304 4.728 12.289 7.609 19.938 7.609h5v50.002zm25.001-70.002h-30.001c-5.514 0-10-4.486-10-10s4.486-10 10-10h30.001c5.514 0 9.999 4.486 9.999 10s-4.485 10-9.999 10z" fill="#6d91ac"/></g></svg>