<?xml version="1.0" encoding="utf-8"?>
<!-- Generator: Adobe Illustrator 16.0.0, SVG Export Plug-In . SVG Version: 6.00 Build 0)  -->
<!DOCTYPE svg PUBLIC "-//W3C//DTD SVG 1.1//EN" "http://www.w3.org/Graphics/SVG/1.1/DTD/svg11.dtd">
<svg version="1.1" id="Capa_1" xmlns="http://www.w3.org/2000/svg" xmlns:xlink="http://www.w3.org/1999/xlink" x="0px" y="0px"
	 width="612px" height="606.5px" viewBox="0 0 612 606.5" enable-background="new 0 0 612 606.5" xml:space="preserve">
<g>
	<circle fill="#FF5D7D" cx="106.229" cy="504.472" r="37.172"/>
	<path fill="#D8D8E4" d="M331.268,408.064v24.117c0,6.977-5.656,12.633-12.633,12.633h-25.266c-6.977,0-12.633-5.656-12.633-12.633
		v-24.117H331.268z"/>
	<path fill="#9BEBF9" d="M397.877,251.877h-183.75c-17.76,0-32.156-14.397-32.156-32.156l0,0c0-17.759,14.396-32.156,32.156-32.156
		h183.75c17.759,0,32.156,14.397,32.156,32.156l0,0C430.033,237.48,415.636,251.877,397.877,251.877z"/>
	<path fill="#CCF5FC" d="M397.877,251.877v64.312c0,50.742-41.134,91.875-91.875,91.875l0,0c-50.742,0-91.875-41.133-91.875-91.875
		v-64.312"/>
	<g>
		<path fill="#CCF5FC" d="M242.837,81.908L242.837,81.908c-12.686,0-22.969,10.283-22.969,22.969v82.688h45.938v-82.688
			C265.807,92.191,255.523,81.908,242.837,81.908z"/>
		<path fill="#CCF5FC" d="M369.166,81.908L369.166,81.908c-12.686,0-22.969,10.283-22.969,22.969v82.688h45.938v-82.688
			C392.135,92.191,381.852,81.908,369.166,81.908z"/>
	</g>
	<path fill="#8481E2" d="M106.233,455.817c-7.677,0-15.078,1.78-21.749,5.119C18.927,368.058,18.7,240.783,85.038,147.678
		c3.68-5.166,2.476-12.336-2.689-16.017s-12.336-2.478-16.017,2.688c-36.593,51.357-55.365,112.004-54.288,175.383
		c1.025,60.315,19.964,117.53,54.854,166.101c-13.865,19.019-12.223,45.895,4.929,63.049c9.486,9.484,21.946,14.228,34.406,14.228
		s24.919-4.743,34.406-14.228l0,0c18.971-18.973,18.971-49.84,0-68.812C131.448,460.879,119.229,455.817,106.233,455.817z
		 M124.396,522.64c-10.018,10.015-26.313,10.015-36.329,0c-10.017-10.018-10.017-26.314,0-36.33
		c4.853-4.853,11.303-7.524,18.164-7.524c6.861,0,13.312,2.672,18.164,7.524C134.413,496.327,134.413,512.623,124.396,522.64z"/>
	<path fill="#8481E2" d="M464.487,524.623c-32.831,23.724-69.738,39.438-109.697,46.712c-9.26,1.687-18.702-0.796-25.905-6.807
		c-7.152-5.967-11.254-14.733-11.254-24.052v-84.179h1.003c13.298,0,24.117-10.817,24.117-24.117v-19.39
		c38.9-14.848,66.609-52.547,66.609-96.602v-54.372c18.508-5.056,32.156-22.008,32.156-42.096c0-22.116-16.541-40.43-37.898-43.251
		v-71.593c0-18.998-15.456-34.453-34.453-34.453c-18.998,0-34.453,15.456-34.453,34.453v71.204H277.29v-71.204
		c0-18.998-15.456-34.453-34.453-34.453s-34.453,15.456-34.453,34.453v71.593c-21.358,2.821-37.898,21.134-37.898,43.251
		c0,20.088,13.648,37.041,32.156,42.096v54.372c0,44.055,27.708,81.754,66.609,96.602v19.391c0,13.3,10.82,24.117,24.117,24.117
		h1.294v84.179c0,16.149,7.11,31.345,19.506,41.687c9.894,8.257,22.223,12.661,34.89,12.661c3.271,0,6.564-0.295,9.845-0.892
		c43.356-7.893,83.405-24.948,119.035-50.693c5.142-3.716,6.296-10.895,2.582-16.034
		C476.81,522.065,469.632,520.907,464.487,524.623z M357.682,104.877c0-6.333,5.152-11.484,11.484-11.484
		s11.484,5.152,11.484,11.484v71.204h-22.969V104.877z M231.353,104.877c0-6.333,5.152-11.484,11.484-11.484
		c6.333,0,11.485,5.152,11.485,11.484v71.204h-22.969V104.877z M193.455,219.721c0-11.398,9.273-20.672,20.672-20.672h183.75
		c11.398,0,20.672,9.273,20.672,20.672c0,11.398-9.273,20.672-20.672,20.672h-183.75
		C202.728,240.393,193.455,231.119,193.455,219.721z M225.611,316.189v-52.828h160.782v52.828c0,44.327-36.063,80.391-80.391,80.391
		C261.674,396.58,225.611,360.517,225.611,316.189z M292.221,432.182v-13.553c4.51,0.604,9.109,0.92,13.781,0.92
		c4.672,0,9.271-0.316,13.781-0.92v13.553c0,0.634-0.515,1.148-1.148,1.148h-12.198c-0.096-0.002-0.191-0.015-0.287-0.015
		c-0.097,0-0.192,0.013-0.289,0.015h-12.49C292.734,433.33,292.221,432.815,292.221,432.182z"/>
	<path fill="#8481E2" d="M497.611,496.394c-0.089,0.089-0.177,0.182-0.261,0.27c-4.329,4.638-4.078,11.903,0.559,16.231
		c2.214,2.065,5.027,3.089,7.834,3.089c2.966,0,5.926-1.143,8.161-3.403c0.088-0.09,0.178-0.181,0.262-0.271
		c4.327-4.637,4.076-11.903-0.56-16.232C509.055,491.829,501.963,491.992,497.611,496.394z"/>
	<path fill="#8481E2" d="M599.222,283.239c-5.117-70.305-35.42-136.51-85.327-186.418c-49.051-49.056-114.576-79.083-184.503-84.548
		c-69.076-5.4-137.823,13.344-193.6,52.777c-5.18,3.661-6.41,10.828-2.748,16.006c3.66,5.178,10.829,6.411,16.007,2.748
		c106.659-75.403,256.526-62.827,348.605,29.257c95.155,95.161,106.662,242.938,27.356,351.377
		c-3.744,5.121-2.629,12.305,2.49,16.05c2.045,1.495,4.418,2.215,6.771,2.215c3.538,0,7.03-1.629,9.28-4.705
		C584.516,421.982,604.287,352.817,599.222,283.239z"/>
	<path fill="#8481E2" d="M104.686,117.979c2.955,0,5.911-1.134,8.157-3.399l0.187-0.191c4.465-4.504,4.432-11.776-0.072-16.241
		c-4.505-4.464-11.777-4.434-16.242,0.072l-0.188,0.19c-4.465,4.504-4.431,11.776,0.073,16.242
		C98.84,116.871,101.764,117.979,104.686,117.979z"/>
	<path fill="#8481E2" d="M308.192,365.355l23.774-41.975c2.015-3.557,1.986-7.913-0.072-11.443c-2.057-3.53-5.836-5.701-9.922-5.701
		h-8.207l15.117-19.094c3.936-4.973,3.096-12.197-1.877-16.132c-4.973-3.938-12.196-3.097-16.134,1.875l-29.85,37.706
		c-2.733,3.454-3.251,8.166-1.333,12.13c1.918,3.966,5.934,6.483,10.338,6.483h12.242l-14.063,24.831
		c-3.126,5.521-1.186,12.528,4.332,15.653c1.79,1.013,3.732,1.493,5.651,1.493C302.192,371.182,306.08,369.087,308.192,365.355z"/>
</g>
</svg>
