<svg id="Layer_1" enable-background="new 0 0 512.009 512.009" height="512" viewBox="0 0 512.009 512.009" width="512" xmlns="http://www.w3.org/2000/svg"><g><g><g clip-rule="evenodd" fill-rule="evenodd"><path d="m114.57 63.946 51.402-13.773-7.945-29.649c-2.02-7.538-9.841-12.054-17.38-10.034l-23.988 6.428c-7.538 2.02-12.054 9.841-10.034 17.38z" fill="#ffe0e6"/><path d="m165.972 50.173-51.402 13.773-8.567 2.296 11.019 41.122 68.535-18.364-11.019-41.122z" fill="#fff"/><path d="m185.557 89-68.535 18.364 25.36 94.644h73.456z" fill="#ffe0e6"/><path d="m235.839 91.337v40.001h60v-34.623-5.379l-30-50.001z" fill="#fff"/><path d="m235.839 131.338h60v70.67h-60z" fill="#e3eaef"/><path d="m295.839 96.715v34.623 70.67h64.962l45.205-168.707-86.934-23.294z" fill="#fff7bf"/><path d="m360.801 202.008h-64.962-60-20.001-73.456-16.378v50.002h260.001v-50.002z" fill="#ffbecb"/><path d="m126.004 252.01h260.001v199.997h-260.001z" fill="#ffe0e6"/><path d="m386.005 452.007h-260.001v30.002c0 11 9.001 20 20 20h220.001c10.999 0 20-9.001 20-20z" fill="#ffbecb"/></g></g><path d="m408.593 23.642-86.933-23.294c-2.561-.688-5.29-.328-7.588.999-2.297 1.326-3.973 3.51-4.659 6.072l-16.134 60.213-18.865-31.442c-1.808-3.013-5.063-4.855-8.575-4.855s-6.768 1.843-8.575 4.855l-30 50.002c-.932 1.554-1.425 3.332-1.425 5.145v100.672h-2.327l-39.315-146.719c-.687-2.563-2.362-4.746-4.659-6.072-1.968-1.137-4.252-1.557-6.477-1.225l-5.375-20.058c-1.668-6.226-5.674-11.437-11.279-14.673-5.606-3.237-12.122-4.101-18.348-2.432l-23.989 6.427c-12.883 3.453-20.557 16.744-17.105 29.628l5.375 20.056c-4.674 1.835-7.327 6.924-5.996 11.889l33.006 123.179h-3.346c-5.523 0-10 4.478-10 10v40.002c-5.523 0-10 4.478-10 10s4.477 10 10 10v179.997c-5.523 0-10 4.478-10 10s4.477 10 10 10v20.002c0 16.542 13.458 30 30 30h220.001c16.542 0 29.999-13.458 29.999-30v-20.002h.001c5.522 0 10-4.478 10-10s-4.478-10-10-10h-.001v-179.998h.001c5.522 0 10-4.478 10-10s-4.478-10-10-10h-.001v-40.002c0-5.522-4.478-10-10-10h-12.172l41.832-156.119c1.43-5.334-1.736-10.817-7.071-12.247zm-82.45-1.387 67.615 18.118-5.177 19.32h-.001l-24.147-6.471c-5.33-1.433-10.817 1.736-12.247 7.071-1.43 5.334 1.736 10.817 7.071 12.247l24.147 6.471-5.176 19.319h-.001l-14.489-3.882c-5.338-1.43-10.817 1.737-12.247 7.071-1.43 5.335 1.736 10.818 7.071 12.247l14.488 3.882-5.177 19.319-14.488-3.883c-5.337-1.429-10.818 1.736-12.248 7.07-1.43 5.335 1.736 10.818 7.07 12.248l14.488 3.883h.001l-5.176 19.319h-.001l-24.148-6.471c-5.332-1.428-10.817 1.737-12.247 7.071s1.736 10.817 7.071 12.247l13.276 3.558h-35.637v-93.976zm-60.304 38.517 20 33.334v27.232h-40v-27.232zm-20 80.567h40v50.67h-40zm-127.588-68.026 49.216-13.188 5.843 21.805-49.216 13.187zm.997-46.737 23.989-6.427c1.438-.386 2.604.106 3.17.434.567.327 1.576 1.092 1.961 2.53l5.356 19.989-32.083 8.597-5.357-19.99c-.587-2.195.77-4.545 2.964-5.133zm10.022 87.859 49.216-13.187 24.32 90.761h-52.751zm246.735 367.574c0 5.514-4.485 10-9.999 10h-220.002c-5.514 0-10-4.486-10-10v-20.002h240v20.002zm0-40.002h-240v-179.997h240zm0-199.997h-240v-30.002h240z" fill="#ff5d7d"/></g></svg>